# xmcd
#
# Track frame offsets: 
#        150
#        14355
#        27752
#        43997
#        62022
#        75612
#        88117
#        104802
#        123940
#        147037
#        162755
#        203242
#
# Disc length: 2883 seconds
#
# Revision: 0
# Processed by: cddbd v1.5.1PL0 Copyright (c) Steve Scherf et al.
# Submitted via: ExactAudioCopy v0.95a5
#
DISCID=9e0b410c
DTITLE=Chuck Berry - Live On Stage
DYEAR=1983
DGENRE=Blues
TTITLE0=Schooldays
TTITLE1=Sweet Little Sixteen
TTITLE2=Roll Over Beethoven
TTITLE3=Everyday I Have The Blues
TTITLE4=Bio
TTITLE5=Medley: Maybelline/Mountain Dew
TTITLE6=Let It Rock
TTITLE7=Medley: Carol/Little Queenie
TTITLE8=Keys To The Highway
TTITLE9=Got My Mojo Working
TTITLE10=Reelin' And Rockin'
TTITLE11=Johnny B. Goode
EXTD=
EXTT0=
EXTT1=
EXTT2=
EXTT3=
EXTT4=
EXTT5=
EXTT6=
EXTT7=
EXTT8=
EXTT9=
EXTT10=
EXTT11=
PLAYORDER=
